<svg xmlns="http://www.w3.org/2000/svg" xmlns:xlink="http://www.w3.org/1999/xlink" width="200" height="33" viewBox="0 0 200 33">
  <defs>
    <clipPath id="clip-KW_logo_33px_white_white">
      <rect width="200" height="33"/>
    </clipPath>
  </defs>
  <g id="KW_logo_33px_white_white" data-name="KW logo_33px_white white" clip-path="url(#clip-KW_logo_33px_white_white)">
    <g id="Group_2" data-name="Group 2">
      <path id="Path_2" data-name="Path 2" d="M242.87,444.112a4,4,0,1,0,4-4A4.125,4.125,0,0,0,242.87,444.112Z" transform="translate(-213.87 -440.112)" fill="#fff"/>
      <g id="Group_8086" data-name="Group 8086" transform="translate(0 0)">
        <path id="Path_1" data-name="Path 1" d="M164.766,442.585h-8l-12,15v-15h-7v32h7v-7l5-6,7,13h8l-11-19Z" transform="translate(-137.766 -441.585)" fill="#fff"/>
        <rect id="Rectangle_2" data-name="Rectangle 2" width="6" height="22" transform="translate(30 11)" fill="#fff"/>
        <path id="Path_3" data-name="Path 3" d="M293.8,467.213v-5h-4v-7h-7v7h-4v5h4v17h7v-17Z" transform="translate(-239.802 -451.213)" fill="#fff"/>
        <path id="Path_4" data-name="Path 4" d="M359.273,491.956h-6c-.475,1.555-2.495,3-5,3-2.937,0-4.611-1.149-5-4l16-1v-1c0-7.041-4.219-12-11-12-6.522,0-11,5.262-11,12,0,6.652,4.478,11,11,11C354.19,499.956,358.5,496.75,359.273,491.956Zm-15-6c.518-2.591,1.365-3,4-3,2.678,0,5,.712,5,3Z" transform="translate(-282.273 -466.956)" fill="#fff"/>
        <path id="Path_5" data-name="Path 5" d="M440.5,501.769h6l8-22h-7l-2,7c-.216.777-1.741,4.445-2,6-.216-1.382-.784-5.266-1-6l-2-7h-7l-2,7c-.95,3.024-1.611,3.711-2,6a55.851,55.851,0,0,0-1-6l-2-7h-7l7,22h6l2-7c1.382-4.535,1.827-6.093,2-7,.129.907.92,3.458,2,7Z" transform="translate(-341.503 -468.769)" fill="#fff"/>
        <path id="Path_6" data-name="Path 6" d="M661.283,478.974a6.187,6.187,0,0,0-2,0c-2.894,0-5.093.883-6,3v-3h-6v22h6v-10c0-4.276,2.2-6,6-6h2Z" transform="translate(-506.283 -467.974)" fill="#fff"/>
        <path id="Path_7" data-name="Path 7" d="M718.394,473v-6l3-3,5,9h7l-8-13,8-9h-8l-7,8V440h-7v33Z" transform="translate(-553.394 -440)" fill="#fff"/>
        <path id="Path_8" data-name="Path 8" d="M794.852,483.956c0,3.8,2.027,6.136,6,7l4,1c1.6.345,2,.352,2,1,0,1.123-.927,2-3,2-2.03,0-3.914-.489-4-2h-6c0,4.362,3.3,7,9,7,5.615,0,10-2.378,10-7,0-3.455-1.458-5.223-5-6l-5-1c-1.512-.345-2-1.006-2-2,0-1.167,1.488-2,3-2,1.6,0,2,1.531,2,3h6a7.677,7.677,0,0,0-8-8C798.669,476.956,794.852,479.464,794.852,483.956Z" transform="translate(-612.852 -466.956)" fill="#fff"/>
        <path id="Path_9" data-name="Path 9" d="M564.482,489.071c0,3.282-1.933,5-5,5-3.11,0-5-1.718-5-5,0-3.239,1.89-6,5-6a9.688,9.688,0,0,1,1,0v-6c-.265-.014-.729,0-1,0a11.706,11.706,0,0,0-12,12c0,6.824,5.089,11,12,11,6.868,0,12-4.176,12-11a23.637,23.637,0,0,0,0-3h-7A12.162,12.162,0,0,1,564.482,489.071Z" transform="translate(-434.482 -467.071)" fill="#fff"/>
      </g>
      <rect id="Rectangle_3" data-name="Rectangle 3" width="8" height="8" transform="translate(129 9)" fill="#425cc7"/>
    </g>
  </g>
</svg>
